<?xml version="1.0" standalone="no"?>
<!DOCTYPE svg PUBLIC "-//W3C//DTD SVG 20010904//EN"
 "http://www.w3.org/TR/2001/REC-SVG-20010904/DTD/svg10.dtd">
<svg version="1.0" xmlns="http://www.w3.org/2000/svg"
 width="450.000000pt" height="450.000000pt" viewBox="0 0 450.000000 450.000000"
 preserveAspectRatio="xMidYMid meet">
<metadata>
Created by potrace 1.14, written by Peter Selinger 2001-2017
</metadata>
<g transform="translate(0.000000,450.000000) scale(0.100000,-0.100000)"
fill="#000000" stroke="none">
<path d="M0 2250 l0 -2250 2250 0 2250 0 0 2250 0 2250 -2250 0 -2250 0 0
-2250z m1650 1600 c43 -22 84 -62 107 -104 14 -27 17 -78 22 -375 l6 -343 39
-34 c45 -39 68 -41 145 -15 132 44 200 55 321 55 104 -1 219 -14 226 -25 3 -5
16 -9 29 -9 13 0 37 -5 52 -11 15 -6 37 -15 48 -19 114 -43 215 -106 308 -190
60 -55 187 -216 187 -237 0 -7 3 -13 8 -13 4 0 13 -15 21 -32 8 -18 22 -51 32
-73 9 -22 23 -58 29 -80 7 -22 19 -50 27 -63 29 -46 45 -344 24 -449 -6 -29
-17 -63 -25 -75 -7 -13 -19 -41 -26 -63 -19 -67 -69 -177 -82 -183 -5 -2 -8
-8 -8 -13 0 -23 -89 -139 -159 -210 -63 -63 -216 -179 -236 -179 -3 0 -28 -11
-57 -25 -28 -14 -60 -25 -69 -25 -10 0 -21 -4 -24 -10 -3 -5 -19 -10 -34 -10
-15 0 -31 -4 -36 -9 -33 -31 -427 -31 -460 0 -5 5 -21 9 -36 9 -15 0 -31 5
-34 10 -3 6 -15 10 -26 10 -10 0 -27 4 -37 9 -9 5 -52 26 -94 47 -43 22 -78
42 -78 47 0 4 -7 7 -15 7 -8 0 -15 4 -15 8 0 4 -13 15 -29 25 -45 27 -132 116
-194 199 -31 42 -57 80 -57 85 0 4 -9 19 -20 33 -11 14 -20 33 -20 43 0 9 -4
17 -10 17 -5 0 -10 7 -10 15 0 8 -4 23 -9 33 -26 51 -46 118 -61 206 -6 37
-10 399 -10 963 0 984 -2 940 57 1001 41 42 75 62 124 71 57 10 115 3 159 -19z"/>
<path d="M2160 2571 c-8 -4 -45 -22 -81 -40 -81 -39 -119 -70 -174 -141 -50
-65 -64 -93 -96 -180 -20 -56 -23 -84 -23 -198 0 -89 4 -136 12 -144 7 -7 12
-20 12 -30 0 -9 17 -50 38 -90 68 -133 201 -241 337 -274 43 -10 173 -9 221 3
136 33 282 158 340 293 27 61 33 77 40 105 10 39 10 261 0 300 -7 28 -11 39
-39 105 -21 48 -96 147 -142 187 -48 41 -141 93 -169 93 -8 0 -18 5 -21 10 -7
12 -233 13 -255 1z"/>
</g>
</svg>
