<?xml version="1.0" encoding="UTF-8" standalone="no"?>
<!DOCTYPE svg PUBLIC "-//W3C//DTD SVG 1.1//EN" "http://www.w3.org/Graphics/SVG/1.1/DTD/svg11.dtd">
<svg xmlns="http://www.w3.org/2000/svg" xmlns:xl="http://www.w3.org/1999/xlink" xmlns:dc="http://purl.org/dc/elements/1.1/" version="1.1" viewBox="-34.72289 14.473483 1163.6722 1286.1154" width="1163.6722" height="1286.1154">
  <defs>
    <marker orient="auto" overflow="visible" markerUnits="strokeWidth" id="FilledArrow_Marker" stroke-linejoin="miter" stroke-miterlimit="10" viewBox="-1 -4 10 8" markerWidth="10" markerHeight="8" color="black">
      <g>
        <path d="M 8 0 L 0 -3 L 0 3 Z" fill="currentColor" stroke="currentColor" stroke-width="1"/>
      </g>
    </marker>
  </defs>
  <metadata> Produced by OmniGraffle 7.20\n2022-06-09 08:04:49 +0000</metadata>
  <g id="Bondy_Ctxt_1" stroke-opacity="1" fill="none" fill-opacity="1" stroke="none" stroke-dasharray="none">
    <title>Bondy Ctxt 1</title>
    <g id="Bondy_Ctxt_1_Layer_1">
      <title>Layer 1</title>
      <g id="Graphic_29">
        <path d="M 793.9871 409.5129 C 930.6712 546.1963 930.6712 767.8037 793.9871 904.4871 C 657.3037 1041.1712 435.6963 1041.1712 299.0129 904.4871 C 162.3288 767.8037 162.3288 546.1963 299.0129 409.5129 C 435.6963 272.8288 657.3037 272.8288 793.9871 409.5129" fill="white"/>
        <path d="M 793.9871 409.5129 C 927.7367 533.94206 931.1078 762.7999 793.9871 904.4871 C 647.047 1023.7302 418.6341 1037.1944 299.0129 904.4871 C 154.40747 777.8272 169.8976 554.8027 299.0129 409.5129 C 429.2603 275.7133 658.6387 280.6816 793.9871 409.5129 M 793.9871 409.5129 C 927.9867 533.69206 931.3578 762.5499 794.2371 904.2371 C 647.297 1023.4802 418.8841 1036.9444 299.2629 904.2371 C 154.65747 777.5772 170.1476 554.5527 299.2629 409.2629 C 429.5103 275.4633 658.8887 280.4316 794.2371 409.2629" stroke="#a5a5a5" stroke-linecap="round" stroke-linejoin="round" stroke-width="2"/>
      </g>
      <g id="Graphic_171">
        <path d="M 701.2607 497.5591 C 788.9122 585.2102 788.9122 727.3205 701.2607 814.9715 C 613.6097 902.623 471.49937 902.623 383.8483 814.9715 C 296.1968 727.3205 296.1968 585.2102 383.8483 497.5591 C 471.49937 409.9076 613.6097 409.9076 701.2607 497.5591" fill="white"/>
        <path d="M 701.2607 497.5591 C 778.4508 578.6372 785.7033 726.6889 701.2607 814.9715 C 615.0251 907.9847 469.13925 906.9358 383.8483 814.9715 C 302.92317 738.88885 289.4771 595.3305 383.8483 497.5591 C 462.53564 415.72686 615.2471 402.5814 701.2607 497.5591 M 701.2607 497.5591 C 778.7008 578.3872 785.9533 726.4389 701.5107 814.7215 C 615.2751 907.7347 469.38925 906.6858 384.0983 814.7215 C 303.17317 738.63885 289.7271 595.0805 384.0983 497.3091 C 462.78564 415.47686 615.4971 402.3314 701.5107 497.3091" stroke="black" stroke-linecap="round" stroke-linejoin="round" stroke-width="2"/>
      </g>
      <g id="Graphic_10">
        <rect x="73" y="17" width="260" height="173" fill="white"/>
        <path d="M 72.38938 16.999306 L 333.97322 17.296482 M 333.37983 16.565931 L 333.1453 190.7087 M 334.11607 190.0865 L 72.80198 189.7992 M 73.233834 190.51854 L 72.99954 16.66138 M 72.514455 16.808597 L 333.504 17.052622 M 333.62444 16.441092 L 333.3399 189.96054 M 334.241 190.02957 L 73.35773 189.79764 M 73.27662 190.39365 L 73.11007 16.87502" stroke="black" stroke-linecap="round" stroke-linejoin="round" stroke-width="2"/>
        <text transform="translate(78 67.38)" fill="black">
          <tspan font-family="Virgil 3 YOFF" font-size="24" fill="black" x="66.656" y="27">Connected</tspan>
          <tspan font-family="Virgil 3 YOFF" font-size="24" fill="black" x="87.584" y="63.12">Device</tspan>
        </text>
      </g>
      <g id="Graphic_11">
        <rect x="416.5" y="17" width="260" height="173" fill="white"/>
        <path d="M 416.08555 17 L 677.3352 17.000398 M 676.7519 16.36308 L 676.1396 190.25924 M 676.7789 189.70737 L 415.1473 189.60322 M 416.13123 190.3907 L 416.501 16.536705 M 416.21055 16.7511 L 676.87465 16.855217 M 676.94915 16.238335 L 676.3627 189.58245 M 676.9038 189.69752 L 416.25787 189.55668 M 416.16683 190.26552 L 416.59746 16.874941" stroke="black" stroke-linecap="round" stroke-linejoin="round" stroke-width="2"/>
        <text transform="translate(421.5 67.38)" fill="black">
          <tspan font-family="Virgil 3 YOFF" font-size="24" fill="black" x="55.088" y="27">Web | Mobile</tspan>
          <tspan font-family="Virgil 3 YOFF" font-size="24" fill="black" x="105.296" y="63.12">App</tspan>
        </text>
      </g>
      <g id="Line_32">
        <path d="M 256.33432 190.32224 L 419.0896 455.8272 M 256.54107 190.14712 L 419.0801 455.3161" marker-end="url(#FilledArrow_Marker)" stroke="black" stroke-linecap="round" stroke-linejoin="round" stroke-width="1"/>
      </g>
      <g id="Graphic_91">
        <rect x="760" y="17" width="260" height="173" fill="white"/>
        <path d="M 759.5288 16.999334 L 1020.5405 17.36852 M 1019.9123 16.634732 L 1020.275 191.30246 M 1020.5541 190.4411 L 759.2732 189.91844 M 759.6336 190.91405 L 760.00145 16.312688 M 759.65385 16.845226 L 1020.0389 17.187777 M 1020.0714 16.50966 L 1020.4405 190.31545 M 1020.6791 190.32396 L 759.76045 189.90524 M 759.7195 190.78897 L 760.088 16.874922" stroke="black" stroke-linecap="round" stroke-linejoin="round" stroke-width="2"/>
        <text transform="translate(765 85.44)" fill="black">
          <tspan font-family="Virgil 3 YOFF" font-size="24" fill="black" x="34.868" y="27">(Micro-) Service</tspan>
        </text>
      </g>
      <g id="Line_92">
        <path d="M 835.1476 190.76722 L 667.2783 457.5662 M 835.3465 190.68871 L 667.8016 456.96186" marker-end="url(#FilledArrow_Marker)" stroke="black" stroke-linecap="round" stroke-linejoin="round" stroke-width="1"/>
      </g>
      <g id="Graphic_94">
        <rect x="205.4261" y="241.31427" width="195.262" height="50.14" fill="white"/>
        <text transform="translate(210.42609 246.31427)" fill="black">
          <tspan font-family="Virgil 3 YOFF" font-size="14" fill="black" x="0" y="15">Send and receive messages</tspan>
          <tspan font-family="Virgil 3 YOFF" font-size="14" fill="black" x="65.891" y="35.07">[WAMP]</tspan>
        </text>
      </g>
      <g id="Graphic_98">
        <rect x="690.97005" y="239.74977" width="195.262" height="50.14" fill="white"/>
        <text transform="translate(695.97005 244.74977)" fill="black">
          <tspan font-family="Virgil 3 YOFF" font-size="14" fill="black" x="0" y="15">Send and receive messages</tspan>
          <tspan font-family="Virgil 3 YOFF" font-size="14" fill="black" x="65.891" y="35.07">[WAMP]</tspan>
        </text>
      </g>
      <g id="Graphic_104">
        <rect x="73.328146" y="1125" width="260" height="173" fill="white"/>
        <path d="M 72.407114 1125.0017 L 334.0739 1124.5264 M 333.56326 1124.2476 L 333.0394 1298.2095 M 333.49885 1297.5207 L 72.34058 1298.3731 M 73.1639 1298.7522 L 73.32891 1124.1919 M 72.53205 1124.8411 L 333.68736 1124.3715 M 333.7317 1124.1228 L 333.1907 1297.3973 M 333.62424 1297.5158 L 73.28935 1298.2728 M 73.28143 1298.6272 L 73.377105 1124.8749" stroke="black" stroke-linecap="round" stroke-linejoin="round" stroke-width="2"/>
        <text transform="translate(78.32815 1175.38)" fill="black">
          <tspan font-family="Virgil 3 YOFF" font-size="24" fill="black" x="66.656" y="27">Connected</tspan>
          <tspan font-family="Virgil 3 YOFF" font-size="24" fill="black" x="87.584" y="63.12">Device</tspan>
        </text>
      </g>
      <g id="Line_106">
        <path d="M 256.5116 1124.4512 L 420.0623 856.6534 M 256.6136 1124.3122 L 419.8576 856.9056" marker-end="url(#FilledArrow_Marker)" stroke="black" stroke-linecap="round" stroke-linejoin="round" stroke-width="1"/>
      </g>
      <g id="Graphic_105">
        <rect x="197.5269" y="1030.11" width="202.61308" height="50.14" fill="white"/>
        <text transform="translate(202.5269 1035.11)" fill="black">
          <tspan font-family="Virgil 3 YOFF" font-size="14" fill="black" x="3.6755414" y="15">Send and receive messages</tspan>
          <tspan font-family="Virgil 3 YOFF" font-size="14" fill="black" x="69.56654" y="35.07">[WAMP]</tspan>
        </text>
      </g>
      <g id="Graphic_7">
        <path d="M 406.36156 592.8724 L 442.436 612.56885 L 442.436 651.9618 L 406.36156 671.6583 L 370.28714 651.9618 L 370.28714 612.56885 Z" fill="white"/>
        <path d="M 405.9688 592.65454 L 442.74545 613.0521 M 442.2031 612.49335 L 442.0937 653.0189 M 442.5046 651.9549 L 406.1612 672.1758 M 407.0193 672.3926 L 369.41262 651.5442 M 370.14105 652.2205 L 369.90234 612.3738 M 369.47354 612.93096 L 406.5815 592.7528 M 406.10163 592.5154 L 442.34546 612.59336 M 442.3398 612.3684 L 442.3323 652.05755 M 442.6548 651.8751 L 406.52305 671.9278 M 407.0948 672.3569 L 370.22387 651.8952 M 370.2438 652.0957 L 369.93764 612.5723 M 369.53974 612.6978 L 406.46753 592.7124" stroke="black" stroke-linecap="round" stroke-linejoin="round" stroke-width="2"/>
      </g>
      <g id="Graphic_117">
        <path d="M 441.85594 613.0281 L 406.36156 632.65495 L 370.86717 613.0281 L 406.36156 593.4012 Z" fill="#232223"/>
        <path d="M 442.40285 612.7342 L 405.5672 632.5295 M 406.4182 632.62544 L 370.5743 612.3799 M 370.4649 612.9369 L 406.8671 592.96565 M 405.9453 592.97 L 442.6669 613.48104 M 442.54776 612.6462 L 406.04445 632.2229 M 406.5172 632.5465 L 371.1426 612.5123 M 370.53826 612.71774 L 406.4901 593.03774 M 406.1195 592.757 L 442.03706 612.8026" stroke="black" stroke-linecap="round" stroke-linejoin="round" stroke-width="2"/>
      </g>
      <g id="Graphic_121">
        <path d="M 496.91874 593.8724 L 532.99316 613.56885 L 532.99316 652.9618 L 496.91874 672.6583 L 460.8443 652.9618 L 460.8443 613.56885 Z" fill="white"/>
        <path d="M 496.40115 593.59716 L 533.3497 613.2436 M 533.02874 612.11796 L 533.1306 654.0305 M 533.8361 652.6722 L 496.11164 672.9342 M 497.1443 673.0309 L 460.6089 652.23815 M 461.06835 653.2694 L 460.9649 612.55084 M 460.612 613.3505 L 497.6164 593.4981 M 496.5378 593.45025 L 533.20993 612.8479 M 533.2672 611.9927 L 533.3691 652.9271 M 533.9827 652.5875 L 496.6871 672.5832 M 497.24927 672.9412 L 461.1613 652.4264 M 461.1589 653.1445 L 461.0196 613.0356 M 460.71633 613.18695 L 497.0352 593.73146" stroke="black" stroke-linecap="round" stroke-linejoin="round" stroke-width="2"/>
      </g>
      <g id="Graphic_120">
        <path d="M 532.4131 613.0281 L 496.91874 632.65495 L 461.42435 613.0281 L 496.91874 593.4012 Z" fill="#232223"/>
        <path d="M 533.0987 612.6511 L 496.7619 632.63386 M 497.35026 632.5949 L 460.7992 613.3576 M 460.7257 613.68315 L 497.76785 593.29774 M 496.5216 593.2862 L 532.8976 613.29455 M 533.2678 612.60636 L 497.2531 632.4076 M 497.4586 632.5016 L 461.1478 613.4503 M 460.7911 613.4498 L 497.252 593.4581 M 496.7056 593.0539 L 532.5516 612.8786" stroke="black" stroke-linecap="round" stroke-linejoin="round" stroke-width="2"/>
      </g>
      <g id="Graphic_124">
        <path d="M 586.9361 592.0824 L 623.01056 611.7789 L 623.01056 651.17185 L 586.9361 670.8683 L 550.8617 651.17185 L 550.8617 611.7789 Z" fill="white"/>
        <path d="M 586.2784 591.7268 L 622.9549 611.557 M 622.6614 610.7194 L 622.6312 651.8921 M 623.1161 650.8547 L 586.19096 671.64535 M 587.0342 671.4684 L 550.65124 650.4739 M 551.36255 651.7044 L 551.06984 610.64056 M 550.51626 611.81756 L 587.31504 591.8771 M 586.4388 591.53636 L 622.8195 611.2108 M 622.8828 610.5945 L 622.83005 651.0025 M 623.2715 650.7838 L 586.9001 671.1965 M 587.12 671.4113 L 551.4795 650.7597 M 551.41656 651.5799 L 551.1396 611.38965 M 550.5979 611.6125 L 587.0136 591.8697" stroke="black" stroke-linecap="round" stroke-linejoin="round" stroke-width="2"/>
      </g>
      <g id="Graphic_123">
        <path d="M 622.4305 612.2381 L 586.9361 631.865 L 551.44175 612.2381 L 586.9361 592.61126 Z" fill="#232223"/>
        <path d="M 623.25856 611.78506 L 586.4146 631.9442 M 587.3923 632.1493 L 550.8341 612.1712 M 550.7949 613.0104 L 588.1237 591.8307 M 586.5667 591.7971 L 623.2358 612.6971 M 623.3913 611.67426 L 586.86164 631.6929 M 587.50834 632.04076 L 551.6706 612.48724 M 550.9125 612.8724 L 587.4736 592.0888 M 586.70106 591.65566 L 622.5881 612.056" stroke="black" stroke-linecap="round" stroke-linejoin="round" stroke-width="2"/>
      </g>
      <g id="Group_173">
        <g id="Graphic_127">
          <path d="M 676.2391 590.6131 L 712.31356 610.30956 L 712.31356 649.7025 L 676.2391 669.399 L 640.1647 649.7025 L 640.1647 610.30956 Z" fill="white"/>
          <path d="M 675.4373 590.18436 L 712.8476 610.1875 M 712.57786 609.6415 L 712.4188 650.0744 M 712.6913 649.37545 L 675.5458 669.6589 M 676.8702 669.5818 L 639.6226 649.4162 M 639.9206 650.45994 L 640.4766 609.8009 M 639.70704 610.6069 L 676.9586 590.2193 M 675.6208 589.95005 L 712.7139 609.8939 M 712.7822 609.51685 L 712.5766 649.3982 M 712.8539 649.3192 L 676.4584 669.2402 M 676.9398 669.5591 L 640.0229 649.5231 M 639.9381 650.3335 L 640.54524 610.06295 M 639.82566 610.4703 L 676.3371 590.4386" stroke="black" stroke-linecap="round" stroke-linejoin="round" stroke-width="2"/>
        </g>
        <g id="Graphic_126">
          <path d="M 711.7335 610.7688 L 676.2391 630.39565 L 640.74475 610.7688 L 676.2391 591.1419 Z" fill="#232223"/>
          <path d="M 712.0436 610.59516 L 676.3549 630.5786 M 677.0659 630.6572 L 639.8082 610.6735 M 639.797 611.27925 L 676.1183 591.0643 M 675.5401 591.0158 L 712.2171 611.0327 M 712.2007 610.52754 L 676.817 630.4078 M 677.1901 630.5337 L 640.48026 610.8455 M 639.9068 611.12696 L 675.9818 591.0396 M 675.6845 590.8553 L 711.9082 610.5528" stroke="black" stroke-linecap="round" stroke-linejoin="round" stroke-width="2"/>
        </g>
      </g>
      <g id="Graphic_151">
        <path d="M 451.99735 676.1769 L 488.07177 695.8734 L 488.07177 735.2663 L 451.99735 754.9628 L 415.9229 735.2663 L 415.9229 695.8734 Z" fill="white"/>
        <path d="M 451.3787 675.8467 L 488.97924 695.9143 M 488.23554 695.0868 L 488.0672 735.3512 M 488.57305 734.7285 L 451.07033 755.4304 M 452.2208 755.4395 L 415.51713 735.33165 M 415.8726 736.0736 L 415.968 695.6519 M 415.5311 696.1416 L 452.81675 675.7283 M 451.51336 675.7036 L 488.3821 695.34766 M 488.4284 694.9621 L 488.25814 734.8822 M 488.73847 734.6767 L 451.7804 755.0305 M 452.3246 755.3532 L 415.94093 735.5079 M 415.97306 735.9485 L 415.99945 695.7775 M 415.64825 696.0023 L 452.08167 675.9776" stroke="black" stroke-linecap="round" stroke-linejoin="round" stroke-width="2"/>
      </g>
      <g id="Graphic_150">
        <path d="M 487.49173 696.3326 L 451.99735 715.95946 L 416.50296 696.3326 L 451.99735 676.7057 Z" fill="#232223"/>
        <path d="M 488.2761 695.89664 L 451.54216 716.31274 M 452.74874 716.1446 L 415.63833 696.2553 M 415.2033 696.8804 L 452.97596 676.661 M 451.7788 676.8082 L 487.9683 696.59314 M 488.44355 695.848 L 452.4245 715.7927 M 452.8193 716.12115 L 416.11196 696.3592 M 415.31106 696.7232 L 452.319 676.85595 M 451.94596 676.60604 L 487.63183 696.18" stroke="black" stroke-linecap="round" stroke-linejoin="round" stroke-width="2"/>
      </g>
      <g id="Graphic_148">
        <path d="M 542.5545 676.1769 L 578.62895 695.8734 L 578.62895 735.2663 L 542.5545 754.9628 L 506.4801 735.2663 L 506.4801 695.8734 Z" fill="white"/>
        <path d="M 542.07955 675.92055 L 578.94556 695.8166 M 578.1792 694.6954 L 578.1391 735.6996 M 578.8595 734.7412 L 542.5719 754.9407 M 543.25226 754.84345 L 505.3891 734.9506 M 506.15477 735.8486 L 506.43745 695.0223 M 506.2012 695.8842 L 543.0336 675.9172 M 542.2501 675.7111 L 578.348 695.1953 M 578.38915 694.5705 L 578.3718 735.017 M 579.0173 734.67506 L 543.14235 754.627 M 543.37435 754.724 L 506.2589 735.2759 M 506.16673 735.7228 L 506.454 695.6332 M 506.2814 695.6765 L 542.6781 676.0492" stroke="black" stroke-linecap="round" stroke-linejoin="round" stroke-width="2"/>
      </g>
      <g id="Graphic_147">
        <path d="M 578.0489 696.3326 L 542.5545 715.95946 L 507.06014 696.3326 L 542.5545 676.7057 Z" fill="#232223"/>
        <path d="M 578.6956 695.9814 L 541.45957 716.2044 M 542.9353 716.1675 L 506.5236 696.2852 M 506.72104 696.7855 L 543.1818 676.3147 M 542.31644 676.4927 L 578.8525 696.7788 M 578.8386 695.88956 L 542.3901 715.7177 M 543.0568 716.0489 L 507.16227 696.5315 M 506.8361 696.6429 L 542.6698 676.4365 M 542.47365 676.3097 L 578.2315 696.1039" stroke="black" stroke-linecap="round" stroke-linejoin="round" stroke-width="2"/>
      </g>
      <g id="Graphic_145">
        <path d="M 632.5719 675.3869 L 668.64634 695.0834 L 668.64634 734.4764 L 632.5719 754.1728 L 596.4975 734.4764 L 596.4975 695.0834 Z" fill="white"/>
        <path d="M 632.2417 675.2025 L 669.3677 695.9369 M 668.5813 694.514 L 668.6726 735.258 M 668.9517 734.3302 L 632.5328 754.6594 M 633.3938 754.8323 L 596.39604 734.1085 M 596.9088 734.8336 L 596.351 694.3527 M 595.6717 695.1933 L 633.3699 674.9586 M 632.3893 675.037 L 668.7147 695.3629 M 668.8083 694.3888 L 668.8206 734.3619 M 669.1016 734.2498 L 632.9644 754.4337 M 633.4732 754.7888 L 596.9746 734.36214 M 596.95725 734.7097 L 596.3688 694.70175 M 595.77454 695.02705 L 632.675 675.2211" stroke="black" stroke-linecap="round" stroke-linejoin="round" stroke-width="2"/>
      </g>
      <g id="Graphic_144">
        <path d="M 668.0663 695.5426 L 632.5719 715.1695 L 597.07754 695.5426 L 632.5719 675.9158 Z" fill="#232223"/>
        <path d="M 668.5705 695.2674 L 631.8421 715.315 M 632.9281 715.03285 L 595.8613 695.5396 M 596.03886 696.2565 L 632.8539 675.18965 M 631.65966 675.0214 L 668.5412 695.8103 M 668.7497 695.2418 L 632.8163 714.8525 M 633.0418 714.9294 L 596.6747 695.9148 M 596.1619 696.128 L 632.4816 675.2267 M 631.8067 674.8573 L 668.231 695.3473" stroke="black" stroke-linecap="round" stroke-linejoin="round" stroke-width="2"/>
      </g>
      <g id="Group_186">
        <g id="Graphic_188">
          <path d="M 841.1662 615.818 L 877.2406 635.5145 L 877.2406 674.9074 L 841.1662 694.6039 L 805.0918 674.9074 L 805.0918 635.5145 Z" fill="white"/>
          <path d="M 840.3337 615.3748 L 878.0788 635.4704 M 877.6233 634.4723 L 877.5661 675.3623 M 877.8041 674.5189 L 840.8004 694.9501 M 842.2949 694.8717 L 805.0027 675.07925 M 805.4174 675.7392 L 804.5969 635.14226 M 803.825 636.07476 L 841.5924 615.5868 M 840.4815 615.2069 L 877.77 635.0596 M 877.8142 634.3474 L 877.7723 674.52485 M 877.9659 674.4606 L 841.733 694.3857 M 842.4148 694.7564 L 805.4911 675.2492 M 805.5259 675.61456 L 804.684 635.5264 M 803.92255 635.89924 L 841.2672 615.64885" stroke="#a5a5a5" stroke-linecap="round" stroke-linejoin="round" stroke-width="2"/>
        </g>
        <g id="Graphic_187">
          <path d="M 876.6606 635.9737 L 841.1662 655.60056 L 805.6718 635.9737 L 841.1662 616.3468 Z" fill="#ccc"/>
          <path d="M 877.0023 635.7872 L 840.2153 655.86085 M 841.4182 656.0201 L 804.8177 635.71416 M 804.9744 636.3852 L 841.5247 616.26884 M 840.5095 616.0615 L 877.2353 636.29026 M 877.1825 635.7635 L 840.8123 655.5027 M 841.4883 655.99405 L 805.6023 636.0155 M 805.0854 636.2347 L 841.3057 616.2753 M 840.6845 615.84565 L 876.8451 635.74065" stroke="#a5a5a5" stroke-linecap="round" stroke-linejoin="round" stroke-width="2"/>
        </g>
      </g>
      <g id="Group_189">
        <g id="Graphic_191">
          <path d="M 257.07442 615.818 L 293.14884 635.5145 L 293.14884 674.9074 L 257.07442 694.6039 L 221 674.9074 L 221 635.5145 Z" fill="white"/>
          <path d="M 256.76257 615.6492 L 293.57437 635.5747 M 293.14512 634.8638 L 292.95924 675.0139 M 293.6351 674.1356 L 256.4229 695.0811 M 257.06585 695.117 L 219.93919 674.0988 M 220.58926 674.9643 L 220.608 635.0218 M 220.27926 635.9741 L 257.84106 615.398 M 256.93427 615.4379 L 293.27003 635.2122 M 293.3189 634.739 L 293.12412 674.3899 M 293.80548 674.0912 L 256.89794 694.898 M 257.1668 695.03445 L 220.6979 674.3713 M 220.6613 674.83926 L 220.69487 635.6692 M 220.35395 635.75724 L 257.19612 615.68695" stroke="#a5a5a5" stroke-linecap="round" stroke-linejoin="round" stroke-width="2"/>
        </g>
        <g id="Graphic_190">
          <path d="M 292.5688 635.9737 L 257.07442 655.60056 L 221.58004 635.9737 L 257.07442 616.3468 Z" fill="#ccc"/>
          <path d="M 293.0497 635.7052 L 256.7616 655.9661 M 257.695 656.0011 L 221.39974 635.68075 M 221.58817 636.13484 L 257.7734 615.5955 M 256.44592 615.36145 L 292.81214 636.11255 M 293.19416 635.61506 L 257.37264 655.6871 M 257.77303 655.95995 L 222.0174 635.8432 M 221.69076 635.9704 L 257.4183 615.6959 M 256.57105 615.2362 L 292.71175 635.81725" stroke="#a5a5a5" stroke-linecap="round" stroke-linejoin="round" stroke-width="2"/>
        </g>
      </g>
      <g id="Group_204">
        <g id="Graphic_206">
          <path d="M 777.0744 458.04034 L 813.1488 477.7368 L 813.1488 517.1298 L 777.0744 536.82626 L 741 517.1298 L 741 477.7368 Z" fill="white"/>
          <path d="M 776.71425 457.84005 L 813.5176 478.3062 M 813.2021 477.5433 L 813.397 517.99435 M 813.6416 516.9253 L 776.3598 537.39355 M 777.3933 537.5722 L 740.3514 517.2203 M 740.95175 518.3115 L 741.0705 477.14246 M 740.3696 478.11796 L 777.5748 457.76663 M 776.8859 457.6312 L 813.3467 477.9773 M 813.4156 477.4179 L 813.5918 516.93676 M 813.7902 516.8432 L 776.874 537.13765 M 777.4638 537.54634 L 741.0784 517.4273 M 740.9663 518.18617 L 741.083 477.61015 M 740.4509 477.9131 L 777.1801 457.8801" stroke="#a5a5a5" stroke-linecap="round" stroke-linejoin="round" stroke-width="2"/>
        </g>
        <g id="Graphic_205">
          <path d="M 812.5688 478.19605 L 777.0744 497.8229 L 741.58 478.19605 L 777.0744 458.5692 Z" fill="#ccc"/>
          <path d="M 813.1024 477.9041 L 776.9381 497.6898 M 777.8622 497.8326 L 741.1043 478.38824 M 740.7915 478.81055 L 777.8357 457.84274 M 776.8601 457.8798 L 813.134 478.5176 M 813.2456 477.81224 L 777.3883 497.39535 M 777.9822 497.71716 L 741.43135 478.4232 M 740.9156 478.68396 L 777.3812 457.9108 M 777.0385 457.6609 L 812.7435 477.9837" stroke="#a5a5a5" stroke-linecap="round" stroke-linejoin="round" stroke-width="2"/>
        </g>
      </g>
      <g id="Group_217">
        <g id="Graphic_219">
          <path d="M 315.07442 458.24616 L 351.14884 477.94264 L 351.14884 517.3356 L 315.07442 537.0321 L 279 517.3356 L 279 477.94264 Z" fill="white"/>
          <path d="M 314.31223 457.8436 L 352.403 477.9614 M 351.54077 476.61215 L 350.81945 518.1071 M 351.23747 517.12975 L 314.154 537.26915 M 315.7024 537.2823 L 278.5334 517.17806 M 279.1448 518.49214 L 278.7935 476.91017 M 278.08674 478.2851 L 315.7401 457.8855 M 314.48507 457.62803 L 351.6552 477.3637 M 351.76366 476.48885 L 351.01384 517.2256 M 351.37973 517.03655 L 315.09386 536.8312 M 315.8145 537.18116 L 279.2387 517.42133 M 279.20946 518.36765 L 278.9027 477.77287 M 278.2098 478.1565 L 315.15064 458.0311" stroke="#a5a5a5" stroke-linecap="round" stroke-linejoin="round" stroke-width="2"/>
        </g>
        <g id="Graphic_218">
          <path d="M 350.5688 478.40187 L 315.07442 498.02873 L 279.58004 478.40187 L 315.07442 458.775 Z" fill="#ccc"/>
          <path d="M 350.8398 478.2552 L 314.3591 497.999 M 315.43807 498.3497 L 279.04174 478.39583 M 279.07613 479.18154 L 315.78563 458.6434 M 314.93923 458.4734 L 351.24176 478.77827 M 350.98586 478.1691 L 314.75672 497.84964 M 315.55334 498.24246 L 279.8796 478.69445 M 279.14543 478.957 L 315.623 458.64066 M 315.10152 458.2817 L 350.7009 478.2642" stroke="#a5a5a5" stroke-linecap="round" stroke-linejoin="round" stroke-width="2"/>
        </g>
      </g>
      <g id="Group_235">
        <g id="Graphic_237">
          <path d="M 315.07442 791.0202 L 351.14884 810.71665 L 351.14884 850.1096 L 315.07442 869.8061 L 279 850.1096 L 279 810.71665 Z" fill="white"/>
          <path d="M 314.78464 790.8603 L 351.92917 811.357 M 351.20805 810.2347 L 350.73856 851.2909 M 351.16436 850.0834 L 314.80897 870.2712 M 315.8967 870.5267 L 277.9712 849.8757 M 278.7657 850.8659 L 279.35997 810.2121 M 278.723 810.8798 L 315.81385 790.6162 M 314.92165 790.7135 L 351.3834 810.7233 M 351.4536 810.1111 L 350.9251 850.1892 M 351.2937 849.9662 L 315.26717 870.0248 M 316.01964 870.4055 L 278.85876 850.2612 M 278.86133 850.7405 L 279.39347 810.4081 M 278.82997 810.7217 L 315.15513 790.8141" stroke="#a5a5a5" stroke-linecap="round" stroke-linejoin="round" stroke-width="2"/>
        </g>
        <g id="Graphic_236">
          <path d="M 350.5688 811.1759 L 315.07442 830.8027 L 279.58004 811.1759 L 315.07442 791.549 Z" fill="#ccc"/>
          <path d="M 351.03215 810.9245 L 314.5146 830.7375 M 315.9663 830.7277 L 279.4241 810.6144 M 278.97392 811.1385 L 315.19622 791.7831 M 314.37358 791.8579 L 351.2439 811.5362 M 351.20086 810.8801 L 315.42455 830.2939 M 316.0706 830.6403 L 279.7995 810.6533 M 279.058 810.9369 L 314.7927 791.8264 M 314.53658 791.6617 L 350.74873 810.948" stroke="#a5a5a5" stroke-linecap="round" stroke-linejoin="round" stroke-width="2"/>
        </g>
      </g>
      <g id="Group_232">
        <g id="Graphic_234">
          <path d="M 496.3387 762.269 L 532.4131 781.9654 L 532.4131 821.3584 L 496.3387 841.0549 L 460.2643 821.3584 L 460.2643 781.9654 Z" fill="white"/>
          <path d="M 495.5306 761.8303 L 533.60716 782.4996 M 532.85985 781.092 L 532.5242 822.1381 M 533.16594 821.3597 L 495.352 841.376 M 496.63383 841.1821 L 459.2138 821.0931 M 459.7556 821.8897 L 460.5428 780.8314 M 460.0999 781.87055 L 496.73744 762.0533 M 495.70346 761.6172 L 532.9959 781.9291 M 532.99746 780.9671 L 532.74584 821.5732 M 533.346 821.3386 L 496.3349 840.8709 M 496.7156 841.1377 L 459.883 821.2775 M 459.76274 821.7625 L 460.55513 781.5125 M 460.17 781.6441 L 496.4586 762.1345" stroke="black" stroke-linecap="round" stroke-linejoin="round" stroke-width="2"/>
        </g>
        <g id="Graphic_233">
          <path d="M 531.8331 782.4247 L 496.3387 802.0515 L 460.8443 782.4247 L 496.3387 762.7978 Z" fill="#232223"/>
          <path d="M 532.1524 782.2465 L 495.1481 802.8942 M 496.20146 802.6402 L 460.0197 781.8874 M 460.1946 782.2848 L 497.1162 762.6984 M 495.9649 762.423 L 532.17475 782.6152 M 532.2979 782.1583 L 496.03794 802.3576 M 496.2966 802.5672 L 460.556 782.0739 M 460.2865 782.0975 L 496.8526 762.6547 M 496.1187 762.2463 L 531.99647 782.2309" stroke="black" stroke-linecap="round" stroke-linejoin="round" stroke-width="2"/>
        </g>
      </g>
      <g id="Group_241">
        <g id="Graphic_243">
          <path d="M 587.5632 762.66395 L 623.63765 782.3604 L 623.63765 821.7534 L 587.5632 841.4499 L 551.4888 821.7534 L 551.4888 782.3604 Z" fill="white"/>
          <path d="M 586.9913 762.3467 L 624.5954 783.2041 M 623.93 781.91145 L 623.201 822.2379 M 623.8455 821.3291 L 587.4134 841.9022 M 588.7789 842.0024 L 551.16277 820.9398 M 551.8216 821.9596 L 551.01146 781.6154 M 550.64215 782.6751 L 588.32904 762.2489 M 587.1765 762.1133 L 624.05456 782.6717 M 624.1414 781.788 L 623.426 821.5641 M 623.9909 821.2402 L 588.147 841.4752 M 588.86484 841.9472 L 551.88664 821.2598 M 551.8442 821.8366 L 551.0875 782.342 M 550.76374 782.5438 L 587.6855 762.5339" stroke="black" stroke-linecap="round" stroke-linejoin="round" stroke-width="2"/>
        </g>
        <g id="Graphic_242">
          <path d="M 623.0576 782.8197 L 587.5632 802.4465 L 552.06884 782.8197 L 587.5632 763.1928 Z" fill="#232223"/>
          <path d="M 623.8017 782.4085 L 587.27786 802.5887 M 588.1951 802.3281 L 551.598 782.8398 M 551.8743 783.2828 L 588.3686 763.0845 M 586.9047 763.1266 L 623.7279 783.1848 M 623.95856 782.3411 L 588.0962 802.0878 M 588.316 802.2109 L 552.2423 783.0623 M 551.9415 783.0533 L 587.6898 763.3116 M 587.0889 762.8929 L 623.2148 782.6355" stroke="black" stroke-linecap="round" stroke-linejoin="round" stroke-width="2"/>
        </g>
      </g>
      <g id="Group_238">
        <g id="Graphic_240">
          <path d="M 777.0744 791.0202 L 813.1488 810.71665 L 813.1488 850.1096 L 777.0744 869.8061 L 741 850.1096 L 741 810.71665 Z" fill="white"/>
          <path d="M 776.6449 790.7792 L 813.5156 811.4628 M 812.8074 810.6261 L 813.2442 850.9425 M 814.0958 849.7158 L 776.8623 869.7568 M 777.7703 869.7517 L 740.6465 850.2752 M 741.0406 851.0909 L 741.4534 810.0918 M 740.6114 811.1395 L 777.4963 790.7874 M 776.8063 790.5893 L 812.975 810.8759 M 813.0359 810.5 L 813.3686 850.0536 M 814.2327 849.613 L 777.462 869.4285 M 777.8758 869.664 L 741.15905 850.3842 M 741.0997 850.9653 L 741.4961 810.5524 M 740.69535 810.9402 L 777.1757 790.8522" stroke="#a5a5a5" stroke-linecap="round" stroke-linejoin="round" stroke-width="2"/>
        </g>
        <g id="Graphic_239">
          <path d="M 812.5688 811.1759 L 777.0744 830.8027 L 741.58 811.1759 L 777.0744 791.549 Z" fill="#ccc"/>
          <path d="M 813.1748 810.8487 L 776.1496 830.8371 M 777.34 830.6992 L 740.4331 811.2337 M 740.6848 811.898 L 777.5332 791.1032 M 776.3974 791.1655 L 812.9094 811.3643 M 813.3075 810.738 L 777.0159 830.369 M 777.4529 830.5971 L 741.2476 811.5914 M 740.7591 811.6832 L 776.99555 791.2478 M 776.5719 790.951 L 812.7081 811.0251" stroke="#a5a5a5" stroke-linecap="round" stroke-linejoin="round" stroke-width="2"/>
        </g>
      </g>
      <g id="Group_248">
        <g id="Graphic_244">
          <path d="M 1010 714.87035 L 1010 596.87035 L 1057 596.87035 L 1057 537.87035 L 1126 655.87035 L 1057 773.87035 L 1057 714.87035 Z" fill="white"/>
          <path d="M 1009.9994 715.3282 L 1010.1476 596.2693 M 1009.3247 597.0511 L 1057.548 596.4198 M 1057.0702 596.82225 L 1056.8391 537.30985 M 1056.7073 537.56695 L 1126.5815 655.7649 M 1126.7517 654.8922 L 1056.4301 775.1671 M 1056.9054 774.6077 L 1056.5215 714.897 M 1056.9788 715.2236 L 1009.3139 714.8652 M 1010.0672 715.2031 L 1010.2114 596.91525 M 1009.4492 596.887 L 1057.1921 596.18354 M 1057.1066 596.6976 L 1056.8496 537.6685 M 1056.912 537.3948 L 1126.6376 655.2904 M 1126.9037 654.78296 L 1057.0468 774.2424 M 1056.9141 774.4834 L 1056.6306 715.0953 M 1057.1031 715.1926 L 1010.1248 714.7693" stroke="#a5a5a5" stroke-linecap="round" stroke-linejoin="round" stroke-width="2"/>
        </g>
        <g id="Graphic_245">
          <rect x="950.5" y="596.62035" width="46" height="118.5" fill="white"/>
          <path d="M 950.2384 596.62106 L 997.2795 596.49284 M 996.5202 595.7655 L 996.0625 715.706 M 996.8776 715.3058 L 950.4531 714.8441 M 950.7415 715.0981 L 950.4992 596.23305 M 950.363 596.3807 L 996.6422 596.2827 M 996.7619 595.641 L 996.209 715.1728 M 997.0025 715.1915 L 950.8653 714.7934 M 950.8462 714.9731 L 950.5198 596.4956" stroke="#a5a5a5" stroke-linecap="round" stroke-linejoin="round" stroke-width="2"/>
        </g>
        <g id="Graphic_247">
          <rect x="917" y="597.01506" width="20" height="118.5" fill="white"/>
          <path d="M 916.3807 597.0062 L 937.5033 597.3095 M 936.7599 596.7545 L 936.5544 716.2018 M 937.4533 715.93974 L 916.3938 715.8467 M 917.0412 716.2371 L 916.9998 596.3784 M 916.5073 596.7744 L 936.8842 597.1576 M 936.907 596.62955 L 936.7547 715.8109 M 937.5778 715.9196 L 917.1656 715.8312 M 917.1315 716.11215 L 917.1196 596.89006" stroke="#a5a5a5" stroke-linecap="round" stroke-linejoin="round" stroke-width="2"/>
        </g>
      </g>
      <g id="Group_249">
        <g id="Graphic_252">
          <path d="M 83 597.6603 L 83 715.6603 L 36 715.6603 L 36 774.6603 L -33 656.6603 L 36 538.6603 L 36 597.6603 Z" fill="white"/>
          <path d="M 82.99963 597.2718 L 83.11368 716.1671 M 83.94451 715.4719 L 35.37146 715.1855 M 36.03171 714.4538 L 36.041305 775.4354 M 36.29795 775.45525 L -33.291622 655.9875 M -33.270912 657.4316 L 36.264077 537.42436 M 35.817582 537.6581 L 35.689692 597.8473 M 35.438368 597.35 L 83.92458 597.66635 M 83.14734 597.1468 L 83.26422 715.342 M 84.0693 715.3822 L 36.15631 715.1515 M 36.24707 714.3288 L 36.17341 774.8895 M 36.363724 775.36475 L -32.780922 656.6262 M -33.221115 657.263 L 35.91128 538.05445 M 35.943293 537.5331 L 35.90214 597.2268 M 35.563796 597.1593 L 83.1251 597.5194" stroke="#a5a5a5" stroke-linecap="round" stroke-linejoin="round" stroke-width="2"/>
        </g>
        <g id="Graphic_251">
          <rect x="96.5" y="597.4103" width="46" height="118.5" fill="white"/>
          <path d="M 143.08465 715.909 L 96.03324 716.014 M 96.7477 716.9365 L 96.03208 596.5862 M 95.71831 597.3202 L 142.75734 596.9558 M 142.13921 596.30014 L 142.50116 716.2957 M 143.20985 715.8735 L 96.86748 716.0116 M 96.79009 716.812 L 96.10174 597.19306 M 95.84297 597.1519 L 142.2658 596.7835 M 142.32767 596.17495 L 142.68092 715.78515" stroke="#a5a5a5" stroke-linecap="round" stroke-linejoin="round" stroke-width="2"/>
        </g>
        <g id="Graphic_250">
          <rect x="156" y="597.0156" width="20" height="118.5" fill="white"/>
          <path d="M 176.78066 715.4998 L 155.65372 715.9277 M 156.37215 716.17975 L 156.0388 596.4987 M 155.39055 597.3187 L 177.05232 596.7403 M 176.24237 596.1697 L 175.99947 715.7763 M 176.9063 715.4061 L 156.49837 715.8853 M 156.49218 716.0548 L 156.1338 597.1764 M 155.51232 597.0726 L 176.36358 596.54 M 176.42365 596.0448 L 176.1683 715.3907" stroke="#a5a5a5" stroke-linecap="round" stroke-linejoin="round" stroke-width="2"/>
        </g>
      </g>
      <g id="Graphic_256">
        <rect x="412.60267" y="1125" width="260" height="173" fill="white"/>
        <path d="M 412.24885 1125.0005 L 672.8636 1124.6241 M 672.1978 1124.1638 L 672.617 1298.3916 M 673.5213 1298.0173 L 411.85434 1297.5693 M 412.24353 1297.8216 L 412.6032 1124.7413 M 412.37384 1124.87 L 672.3239 1124.4909 M 672.4186 1124.0385 L 672.813 1297.8906 M 673.6463 1297.921 L 412.3689 1297.5226 M 412.26915 1297.6964 L 412.60866 1124.8748" stroke="black" stroke-linecap="round" stroke-linejoin="round" stroke-width="2"/>
        <text transform="translate(417.60267 1175.38)" fill="black">
          <tspan font-family="Virgil 3 YOFF" font-size="24" fill="black" x="55.088" y="27">Web | Mobile</tspan>
          <tspan font-family="Virgil 3 YOFF" font-size="24" fill="black" x="105.296" y="63.12">App</tspan>
        </text>
      </g>
      <g id="Graphic_257">
        <rect x="751.7809" y="1124" width="260" height="173" fill="white"/>
        <path d="M 750.87325 1123.9989 L 1012.9037 1124.3305 M 1012.25 1123.9609 L 1011.288 1296.9421 M 1011.8624 1296.6358 L 750.8779 1297.3766 M 751.8224 1297.6937 L 751.7808 1123.6166 M 750.9983 1123.8102 L 1012.373 1124.1685 M 1012.4235 1123.8362 L 1011.5141 1296.513 M 1011.9876 1296.5866 L 751.9474 1297.2816 M 751.8408 1297.5688 L 751.8993 1123.875" stroke="black" stroke-linecap="round" stroke-linejoin="round" stroke-width="2"/>
        <text transform="translate(756.7809 1192.44)" fill="black">
          <tspan font-family="Virgil 3 YOFF" font-size="24" fill="black" x="34.868" y="27">(Micro-) Service</tspan>
        </text>
      </g>
      <g id="Line_259">
        <path d="M 542.5947 1124.5153 L 542.7841 890.7109 M 542.6646 1124.3903 L 542.8184 891.2239" marker-end="url(#FilledArrow_Marker)" stroke="black" stroke-linecap="round" stroke-linejoin="round" stroke-width="1"/>
      </g>
      <g id="Graphic_258">
        <rect x="441.28284" y="1033.1463" width="202.61308" height="50.14" fill="white"/>
        <text transform="translate(446.28284 1038.1463)" fill="black">
          <tspan font-family="Virgil 3 YOFF" font-size="14" fill="black" x="3.6755414" y="15">Send and receive messages</tspan>
          <tspan font-family="Virgil 3 YOFF" font-size="14" fill="black" x="69.56654" y="35.07">[WAMP]</tspan>
        </text>
      </g>
      <g id="Line_261">
        <path d="M 828.6814 1123.7444 L 665.0672 856.6587 M 828.7669 1123.6437 L 665.4999 857.0727" marker-end="url(#FilledArrow_Marker)" stroke="black" stroke-linecap="round" stroke-linejoin="round" stroke-width="1"/>
      </g>
      <g id="Graphic_260">
        <rect x="687.1086" y="1032.8872" width="202.61308" height="50.14" fill="white"/>
        <text transform="translate(692.1086 1037.8872)" fill="black">
          <tspan font-family="Virgil 3 YOFF" font-size="14" fill="black" x="3.6755414" y="15">Send and receive messages</tspan>
          <tspan font-family="Virgil 3 YOFF" font-size="14" fill="black" x="69.56654" y="35.07">[WAMP]</tspan>
        </text>
      </g>
      <g id="Line_14">
        <path d="M 545.8799 190.42406 L 544.09204 421.59953 M 546.0534 190.29943 L 544.3225 420.9164" marker-end="url(#FilledArrow_Marker)" stroke="black" stroke-linecap="round" stroke-linejoin="round" stroke-width="1"/>
      </g>
      <g id="Group_287">
        <g id="Graphic_275">
          <text transform="translate(479.663 497)" fill="black">
            <tspan font-family="Virgil 3 YOFF" font-size="49" fill="black" x="0" y="55">bondy</tspan>
          </text>
        </g>
        <g id="Line_278">
          <path d="M 507.92116 543.8941 L 499.153 544.4706 M 508.3032 543.6258 L 500.95445 544.3118" stroke="black" stroke-linecap="round" stroke-linejoin="round" stroke-width="3"/>
        </g>
        <g id="Line_279">
          <path d="M 536.13265 544.08464 L 527.59365 543.3779 M 536.4844 543.9902 L 529.3453 543.1322" stroke="black" stroke-linecap="round" stroke-linejoin="round" stroke-width="3"/>
        </g>
        <g id="Line_282">
          <path d="M 556.6195 544.0585 L 549.5069 543.7828 M 556.9924 543.73873 L 551.1738 543.7163" stroke="black" stroke-linecap="round" stroke-linejoin="round" stroke-width="3"/>
        </g>
        <g id="Graphic_284">
          <path d="M 578.7368 539.066 L 582.8924 541.869 L 576.85315 550.8226 L 572.69755 548.01963 Z" fill="white"/>
        </g>
        <g id="Graphic_285">
          <path d="M 574.33815 546.0388 L 578.91735 544 L 583.3101 553.8663 L 578.7309 555.9051 Z" fill="white"/>
        </g>
        <g id="Line_283">
          <path d="M 582.23005 543.20204 L 575.3962 541.66736 M 582.5547 543.0513 L 576.94216 541.903" stroke="black" stroke-linecap="round" stroke-linejoin="round" stroke-width="3"/>
        </g>
        <g id="Line_286">
          <path d="M 582.7267 544.1698 L 574.2909 543.1439 M 583.10125 543.7983 L 575.8287 543.119" stroke="black" stroke-linecap="round" stroke-linejoin="round" stroke-width="3"/>
        </g>
      </g>
      <g id="Graphic_96">
        <rect x="447.72406" y="238.8371" width="195.262" height="50.14" fill="white"/>
        <text transform="translate(452.72406 243.8371)" fill="black">
          <tspan font-family="Virgil 3 YOFF" font-size="14" fill="black" x="0" y="15">Send and receive messages</tspan>
          <tspan font-family="Virgil 3 YOFF" font-size="14" fill="black" x="65.891" y="35.07">[WAMP]</tspan>
        </text>
      </g>
    </g>
  </g>
</svg>
